<?xml version="1.0" encoding="utf-8"?>
<!-- Generator: Adobe Illustrator 19.1.0, SVG Export Plug-In . SVG Version: 6.00 Build 0)  -->
<svg version="1.1" id="Layer_1" xmlns="http://www.w3.org/2000/svg" xmlns:xlink="http://www.w3.org/1999/xlink" x="0px" y="0px"
	 viewBox="-475 272 9 18" style="enable-background:new -475 272 9 18;" xml:space="preserve">
<style type="text/css">
	.st0{fill:#FF6600;}
</style>
<title>Icons/Arrow</title>
<desc>Created with Sketch.</desc>
<g id="Home">
	<g id="Careers-2" transform="translate(-953.000000, -643.000000)">
		<g id="Button" transform="translate(812.000000, 629.000000)">
			<g id="Icons_x2F_Arrow" transform="translate(141.000000, 14.000000)">
				<g id="Fill-1">
					<path class="st0" d="M-468.7,280.8l-1.6-1.6c-0.1-0.1-0.3-0.1-0.4,0c-0.1,0.1-0.1,0.3,0,0.4l1.2,1.1h-3c-0.2,0-0.3,0.1-0.3,0.3
						s0.1,0.3,0.3,0.3h3l-1.2,1.1c-0.1,0.1-0.1,0.3,0,0.4c0.1,0.1,0.3,0.1,0.4,0l1.6-1.6c0.1-0.1,0.1-0.2,0.1-0.2
						C-468.6,280.9-468.6,280.8-468.7,280.8 M-470.5,276.5c-2.5,0-4.5,2-4.5,4.5s2,4.5,4.5,4.5s4.5-2,4.5-4.5
						S-468,276.5-470.5,276.5 M-470.5,285c-2.2,0-3.9-1.8-3.9-4s1.8-4,3.9-4c2.2,0,3.9,1.8,3.9,4S-468.3,285-470.5,285"/>
				</g>
			</g>
		</g>
	</g>
</g>
</svg>
