<?xml version="1.0" encoding="UTF-8"?>
<svg width="123px" height="164px" viewBox="0 0 123 164" version="1.1" xmlns="http://www.w3.org/2000/svg" xmlns:xlink="http://www.w3.org/1999/xlink">
    <!-- Generator: Sketch 42 (36781) - http://www.bohemiancoding.com/sketch -->
    <title>Logos/mainlogo</title>
    <desc>Created with Sketch.</desc>
    <defs>
        <polygon id="path-1" points="0 127.679251 82.3381925 127.679251 82.3381925 -0.000130528825 0 -0.000130528825"></polygon>
    </defs>
    <g id="Home" stroke="none" stroke-width="1" fill="none" fill-rule="evenodd">
        <g id="Mango-Mood" transform="translate(-58.000000, -26.000000)">
            <g id="LeftMenu">
                <g id="Widgets/Leftmenu">
                    <g id="Logos/mainlogo" transform="translate(58.000000, 26.000000)">
                        <g>
                            <g id="Page-1" transform="translate(21.574390, 0.210039)">
                                <path d="M74.8973429,120.038876 C71.8809946,120.038876 70.4618446,117.342151 70.4618446,114.772038 C70.4618446,112.228031 71.8809946,109.537832 74.8973429,109.537832 C77.926783,109.537832 79.3197494,112.228031 79.3197494,114.772038 C79.3197494,117.342151 77.926783,120.038876 74.8973429,120.038876 Z M74.8973429,106.965109 C70.1685885,106.965109 67.4913175,110.52463 67.4913175,114.772038 C67.4913175,119.055994 70.1685885,122.607684 74.8973429,122.607684 C79.6260973,122.607684 82.3046775,119.055994 82.3046775,114.772038 C82.3046775,110.512883 79.6260973,106.965109 74.8973429,106.965109 Z" id="Fill-1" fill="#FEFEFE"></path>
                                <path d="M59.1206891,119.470293 C56.2562055,119.470293 54.9889203,117.068562 54.9889203,114.617231 C54.9889203,112.141099 56.1344519,109.538354 59.1206891,109.538354 C62.0296847,109.538354 63.1228492,112.241606 63.1228492,114.617231 C63.1228492,116.945865 61.8791291,119.470293 59.1206891,119.470293 L59.1206891,119.470293 Z M63.1228492,108.531977 C62.075506,107.541263 60.6157714,106.965631 59.1206891,106.965631 C54.6092584,106.965631 52.0183932,110.375044 52.0183932,114.437101 C52.0183932,118.739331 54.2413791,122.049542 59.1206891,122.049542 C60.6825396,122.049542 62.0885978,121.456942 63.1228492,120.440122 L63.1228492,120.505386 C63.1228492,123.230828 62.2326075,125.093475 59.1206891,125.093475 C57.4527951,125.093475 55.8542876,124.559612 55.5204469,122.844463 L55.4248769,122.358896 L52.4896976,122.358896 L52.5473015,122.997182 C52.8418668,126.299561 55.9917514,127.679251 59.1206891,127.679251 C64.0850957,127.679251 66.0815936,125.00341 66.0933762,120.505386 L66.0933762,107.362439 L63.1228492,107.362439 L63.1228492,108.531977 Z" id="Fill-3" fill="#FEFEFE"></path>
                                <path d="M44.787405,106.965501 C43.3224338,106.965501 41.8142596,107.501974 40.7472788,108.460056 L40.7472788,107.362308 L37.7741333,107.362308 L37.7741333,122.212573 L40.7472788,122.212573 L40.7472788,113.648577 C40.8022643,111.394344 42.1009698,109.538224 44.6512504,109.538224 C47.077159,109.538224 47.6728355,110.992315 47.6728355,113.09644 L47.6728355,122.212573 L50.6747828,122.212573 L50.6747828,112.821024 C50.6747828,108.987392 48.9466666,106.965501 44.787405,106.965501" id="Fill-5" fill="#FEFEFE"></path>
                                <path d="M32.5362392,116.320502 C32.5676595,118.685684 30.449408,120.039268 28.1400163,120.039268 C26.8373832,120.039268 25.5452236,119.258706 25.5452236,117.91948 C25.5452236,117.552694 25.6329386,117.191129 25.8712091,116.917018 C26.652789,115.960242 29.015857,115.709627 30.2019731,115.551687 C30.7033887,115.490338 31.2296786,115.418548 31.715384,115.329788 C31.9837657,115.29324 32.2626208,115.230586 32.5362392,115.165322 L32.5362392,116.320502 Z M29.6115334,106.965501 C26.0688952,106.965501 23.3719865,108.509657 23.178228,112.108336 L23.155972,112.715296 L26.1526826,112.715296 L26.1526826,112.150106 C26.2102865,110.262659 27.5430307,109.538224 29.3876638,109.538224 C31.1013791,109.538224 32.5362392,109.869767 32.5362392,111.751993 C32.5362392,112.931973 31.9039058,112.928058 30.8251423,113.044228 C27.3492722,113.418846 22.5773149,113.542848 22.5773149,118.014766 C22.5773149,121.083499 24.9809674,122.60677 28.00648,122.60677 C30.1011664,122.60677 31.4849685,122.074212 32.6697755,120.900758 L32.651447,122.226931 L35.526404,122.212573 L35.5159306,111.942565 C35.5159306,108.349106 33.0546741,106.965501 29.6115334,106.965501 L29.6115334,106.965501 Z" id="Fill-7" fill="#FEFEFE"></path>
                                <path d="M3.00940968,108.560171 C4.06329874,107.501583 5.48637628,106.965109 7.17783549,106.965109 C8.90987926,106.965109 10.509696,107.643859 11.3920826,108.955674 C12.4381166,107.654301 14.0916096,106.965109 15.8642379,106.965109 C19.5037554,106.965109 21.2357992,108.934789 21.2357992,112.350729 L21.2462726,122.212181 L18.2521803,122.212181 L18.2521803,112.429046 C18.2521803,110.475029 17.6067551,109.537832 15.4819577,109.537832 C12.7889765,109.537832 12.1906817,111.72419 12.1906817,113.877916 L12.1906817,122.212181 L9.22277303,122.212181 L9.22277303,112.350729 C9.22277303,110.762193 8.65458936,109.537832 6.81388374,109.537832 C4.01093159,109.537832 3.16127444,111.661536 3.14949183,113.98756 L3.14949183,122.212181 L0.172418869,122.212181 L0.172418869,107.361917 L3.00940968,107.361917 L3.00940968,108.560171 Z" id="Fill-9" fill="#FEFEFE"></path>
                                <mask id="mask-2" fill="white">
                                    <use xlink:href="#path-1"></use>
                                </mask>
                                <g id="Clip-12"></g>
                                <polygon id="Fill-11" fill="#221F20" mask="url(#mask-2)" points="25.9819657 92.6257345 27.5896374 92.6257345 27.5896374 90.431545 25.9819657 90.431545"></polygon>
                                <path d="M33.6037438,102.251713 C31.4972748,102.251713 30.4878978,100.406036 30.4878978,98.6112644 C30.4878978,96.816493 31.4972748,94.964289 33.6037438,94.964289 C35.7206861,94.964289 36.7051887,96.816493 36.7051887,98.6112644 C36.7051887,100.406036 35.7206861,102.251713 33.6037438,102.251713 M33.6037438,93.6080945 C30.5638302,93.6080945 28.8933179,95.8910436 28.8933179,98.6112644 C28.8933179,101.338012 30.5638302,103.605297 33.6037438,103.605297 C36.6358022,103.605297 38.3089329,101.338012 38.3089329,98.6112644 C38.3089329,95.8910436 36.6358022,93.6080945 33.6037438,93.6080945" id="Fill-13" fill="#221F20" mask="url(#mask-2)"></path>
                                <polygon id="Fill-14" fill="#221F20" mask="url(#mask-2)" points="25.9819657 103.605819 27.5896374 103.605819 27.5896374 93.5329099 25.9819657 93.5329099"></polygon>
                                <path d="M19.4790119,102.251713 C17.386944,102.251713 16.597509,100.336855 16.597509,98.6112644 C16.597509,96.8778416 17.386944,94.964289 19.4790119,94.964289 C21.7229447,94.964289 22.5909303,96.7264281 22.5909303,98.6112644 C22.5909303,100.497406 21.7229447,102.251713 19.4790119,102.251713 L19.4790119,102.251713 Z M22.5909303,95.0086688 C21.9062297,94.0910511 20.7070218,93.6080945 19.4790119,93.6080945 C16.4548085,93.6080945 14.9924556,95.9523922 14.9924556,98.6112644 C14.9924556,101.262305 16.4548085,103.605297 19.4790119,103.605297 C20.6389445,103.605297 21.9572877,103.051855 22.6747178,102.131627 L22.6747178,103.503485 L24.1868195,103.503485 L24.1868195,90.4049171 L22.5909303,90.4049171 L22.5909303,95.0086688 Z" id="Fill-15" fill="#221F20" mask="url(#mask-2)"></path>
                                <path d="M1.55831572,95.188668 L1.55831572,93.5531419 L0.0488323753,93.5531419 L0.0488323753,103.605167 L1.64995825,103.605167 L1.64995825,98.1020714 C1.64995825,96.3086054 3.02066862,94.9876536 4.9386158,95.0777185 L5.17819555,95.0881608 L5.17819555,93.5531419 L4.97396363,93.5531419 C3.50506483,93.4891827 2.29800183,94.0909206 1.55831572,95.188668" id="Fill-16" fill="#221F20" mask="url(#mask-2)"></path>
                                <path d="M11.9550295,99.628345 C11.9825223,101.287366 10.5005317,102.251974 8.87976815,102.251974 C7.91883079,102.251974 6.98145865,101.661984 6.98145865,100.669965 C6.98145865,99.2237056 9.09971021,99.1062297 10.2046573,98.9456792 C10.5476621,98.8973836 10.8854303,98.8503932 11.2087975,98.8047081 C11.4405222,98.7616336 11.7285416,98.7159485 11.9550295,98.5997778 L11.9550295,99.628345 Z M9.83546879,93.6083555 C7.61117373,93.6083555 5.89484011,94.5651318 5.7835599,96.8363334 L5.77308647,97.0778117 L7.37421234,97.0778117 L7.37421234,96.8533021 C7.41479689,95.5062447 8.37442507,94.96455 9.6914591,94.96455 C10.9325608,94.96455 11.9550295,95.2477976 11.9550295,96.6000762 C11.9550295,97.4915881 11.4693241,97.5385785 10.6759617,97.6286434 C8.47654103,97.8753428 5.37509606,97.9158068 5.37509606,100.750893 C5.37509606,102.684025 6.8911253,103.605558 8.78027054,103.605558 C10.3107008,103.605558 11.2245077,103.178729 12.0466721,102.157994 L12.0427445,103.488082 L13.5888849,103.488082 L13.5718655,96.7253839 C13.5718655,94.452877 12.0309619,93.6083555 9.83546879,93.6083555 L9.83546879,93.6083555 Z" id="Fill-17" fill="#221F20" mask="url(#mask-2)"></path>
                                <path d="M30.4024084,26.9911421 C27.3520215,27.4884569 26.0376058,28.9908437 27.4711567,30.2713315 C28.8889976,31.550514 31.3450173,30.0141897 31.8752348,29.069161 C32.4119982,28.1123847 33.442322,26.4951326 30.4024084,26.9911421" id="Fill-18" fill="#FEFEFE" mask="url(#mask-2)"></path>
                                <path d="M21.4798301,34.1804087 C16.9657811,36.3236921 13.5553699,42.6739194 12.6114519,51.2026729 C11.6740797,59.7327316 12.8785244,66.2891945 18.9177669,72.9892391 C24.9701013,79.6827573 29.3113387,76.9925582 26.7230919,74.5856066 C24.1230625,72.1669075 19.3314675,71.4881576 20.915574,66.0046417 C22.4302941,60.8082891 19.2607718,52.3513265 24.3521688,46.4827505 C29.8075175,39.1313671 25.9938792,32.0423466 21.4798301,34.1804087" id="Fill-19" fill="#FEFEFE" mask="url(#mask-2)"></path>
                                <path d="M31.3882202,82.5130138 C29.250331,85.5504196 33.3611529,87.9860874 35.3707426,86.4367103 C39.0429896,83.134331 33.7107037,79.1975816 31.3882202,82.5130138" id="Fill-20" fill="#FEFEFE" mask="url(#mask-2)"></path>
                                <path d="M42.3468336,101.852687 C41.6516596,97.8141248 42.7893361,93.032854 38.3603837,90.646787 C35.8546151,89.3088666 36.050992,87.4775471 36.9936008,86.6721843 C39.1000698,84.8748024 41.5573987,87.5454221 43.0406985,88.9969027 C45.7310612,91.6335849 55.9033818,98.4732954 65.2522287,91.7915248 C77.4786511,83.0513147 75.1902062,55.7055258 67.7030118,47.089318 C61.7685035,40.2248071 56.5684447,37.3479518 54.9254251,33.3381062 C53.3072799,29.3282607 51.8554004,25.4084801 45.2885588,28.7147752 C38.7099345,31.9988805 34.6370787,29.9143351 35.0101947,27.3520543 C35.3702189,24.8041316 39.4875868,24.0692543 44.4375924,23.5419179 C72.0442492,21.6505552 91.0325809,48.4677024 78.2877237,79.6105748 C73.4332881,91.4586763 62.1756582,100.270677 50.1063373,103.550867 C46.5309696,104.775227 42.8456308,104.793501 42.3468336,101.852687" id="Fill-21" fill="#FEFEFE" mask="url(#mask-2)"></path>
                                <path d="M27.0272142,26.166461 C25.7258903,26.5972061 20.9918991,20.5367527 22.0431699,18.7119598 C23.0983681,16.910662 25.5962816,18.4169646 26.2888372,20.5641638 C27.0272142,22.7074471 26.1579193,22.8223125 26.8583301,23.3352908 C27.5705234,23.8521849 28.2971178,25.7448529 27.0272142,26.166461" id="Fill-22" fill="#221F20" mask="url(#mask-2)"></path>
                                <path d="M20.8942344,21.8222006 C15.470306,19.5301144 7.32590364,17.2119225 1.5720621,21.8496117 C-4.18701616,26.4729427 7.11250746,28.5927308 15.5187456,27.6751131 C23.9354571,26.7574955 26.3391097,24.1129815 20.8942344,21.8222006 M30.6436901,7.87258505 C34.1064685,4.36919137 37.9646189,2.64229501 39.515996,0.788785692 C41.0464262,-1.08038709 43.2419193,0.008223316 38.8326045,8.03966194 C34.395797,16.0737111 34.871029,21.2413473 30.8741056,19.283415 C27.9415447,17.8632613 26.8811098,11.6879426 30.6436901,7.87258505" id="Fill-23" fill="#8AC341" mask="url(#mask-2)"></path>
                            </g>
                            <path d="M1.22909164,142.788492 C1.22909164,143.130714 1.14598621,142.8898 1.14598621,143.239434 C1.14598621,143.53718 0.668440132,144.321695 0.576652054,145.181573 L0.5195946,146.312016 L0.478662079,146.540576 L0.749064795,148.176321 C1.12738052,148.26651 1.37421603,148.554371 1.53422498,148.554371 L1.61609002,148.554371 C1.84183908,148.554371 2.02293447,148.097252 2.0092903,148.040421 L1.85176211,146.98287 L1.85176211,146.827202 C1.85176211,146.565285 1.78354124,146.413324 1.69423392,146.234182 C1.81082959,146.068631 1.93238678,145.91667 1.93238678,145.638692 C1.93238678,145.53862 1.84431984,145.585567 1.77485859,145.33477 C2.20527025,145.163041 1.65082064,145.285351 2.08123231,145.111152 C2.08123231,144.444005 2.56622067,143.623662 3.02764182,143.388925 C3.53371662,143.501351 3.97777246,143.895462 3.97777246,144.436592 L4.00506081,144.965368 L3.89218628,146.234182 C3.84381148,146.834615 4.2531367,147.084177 4.44787627,147.355978 L4.76169226,147.355978 C4.7778172,147.558593 4.88821097,147.801978 5.07674864,147.801978 C5.35583401,147.801978 5.39056464,147.473346 5.39056464,147.210194 L5.37195895,146.601113 L5.4711893,145.638692 C5.51212182,145.196398 5.81725516,144.361229 6.25386872,144.361229 L6.33449339,144.361229 C6.71653025,144.361229 6.88522186,145.163041 6.88522186,145.554681 L6.88522186,146.083457 C6.88522186,146.993989 6.50070423,147.603069 6.4907812,148.259097 C6.35557984,148.346814 6.33449339,148.26651 6.33449339,148.476537 C6.33449339,148.729806 6.11122509,149.574859 6.05912915,149.742881 L6.09385978,149.904726 L6.41511805,149.904726 C6.4907812,149.684814 6.97576955,149.205457 7.12585547,149.006548 C7.38137363,148.634676 7.52277689,148.359169 7.74604518,147.953939 C7.65301673,147.813097 7.58727662,147.824216 7.58727662,147.658665 L7.58727662,147.507939 C7.74604518,147.432576 7.99536145,147.362155 8.010246,147.134831 L7.91597717,145.785712 C7.87504464,145.411368 7.74604518,145.510205 7.74604518,145.181573 C7.74604518,144.24139 6.90754869,143.823806 6.56396358,143.406221 L6.09385978,143.319739 C5.58778497,143.43093 4.91177818,143.907817 4.84107655,143.907817 C4.35732857,143.907817 3.99513777,142.264659 3.02764182,142.264659 L2.95445943,142.246127 L2.08123231,142.342492 C2.05022282,141.973091 2.05022282,141.828542 1.63469571,141.798891 L1.37421603,141.672875 C1.37421603,142.204121 1.22909164,142.300487 1.22909164,142.788492 L1.22909164,142.788492 Z M119.829212,152.532543 L119.777116,153.003252 C119.738664,153.252815 120.185201,153.798887 120.513901,153.798887 C120.888496,153.798887 120.96664,153.719817 121.144014,153.508554 C121.233321,153.393657 121.455349,153.03661 121.455349,152.858704 C121.455349,152.743806 121.436743,152.736394 121.39457,152.626438 L121.550858,152.444826 C121.512406,152.378111 121.49132,152.391701 121.49132,152.300277 L121.49132,152.117429 L121.402013,152.117429 C121.402013,151.72826 121.330071,151.786327 121.208514,151.540471 C121.052226,151.248903 120.939351,151.292144 120.80539,151.127828 C120.461805,151.358859 120.388623,151.226665 120.123182,151.644249 C119.989221,151.849335 119.85526,152.218737 119.829212,152.532543 L119.829212,152.532543 Z M121.436743,140.244686 L121.320148,141.371423 L121.330071,141.418371 L121.233321,142.452448 C121.209754,142.619235 121.208514,142.598232 121.135331,142.730426 C121.245725,143.191252 121.186187,142.973811 121.186187,143.43093 C121.186187,143.524825 121.198591,143.509999 121.233321,143.573008 C121.144014,143.695318 121.091918,143.776858 121.091918,143.998005 L121.091918,144.089429 C121.091918,144.419296 120.943072,144.555196 120.943072,144.738044 L120.943072,145.163041 L120.867409,145.62016 L120.835159,145.727645 L120.897178,145.82154 C120.850044,145.898138 120.842602,145.884548 120.842602,146.006858 C120.842602,146.098282 120.850044,146.098282 120.897178,146.150171 C120.788025,146.203296 120.690035,146.192177 120.690035,146.331784 C120.690035,146.40344 120.897178,146.502277 120.897178,146.571462 C120.897178,146.655473 120.820275,146.644354 120.737169,146.660415 L120.737169,146.993989 C120.737169,147.330033 120.502738,147.813097 120.502738,147.883518 L120.502738,148.171379 L120.546151,148.960836 C120.564757,149.194338 120.402267,149.350005 120.402267,149.380892 C120.402267,149.651457 120.489093,149.778709 120.502738,150.034449 C120.820275,150.261773 120.47793,150.277834 121.091918,150.410028 C121.135331,150.208648 121.277975,149.877546 121.277975,149.69964 L121.277975,149.611922 C121.277975,149.427839 121.383407,149.316648 121.383407,149.094266 L121.383407,149.042377 C121.383407,148.729806 121.52481,148.522249 121.52481,148.357933 C121.52481,148.084897 121.697223,147.798271 121.697223,147.507939 L121.697223,147.362155 L121.832424,146.426914 L121.832424,146.192177 L122.176009,144.043717 L122.301288,142.782315 L122.452614,140.292869 L122.478662,139.919761 L122.478662,139.788803 C122.478662,139.677611 122.43773,139.567656 122.343461,139.556537 C122.157404,139.528121 121.910568,139.623251 121.666214,139.760387 C121.402013,139.912348 121.436743,140.244686 121.436743,140.244686 L121.436743,140.244686 Z M107.863271,146.583817 L108.072895,146.601113 L108.029482,146.325606 L107.863271,146.583817 Z M97.0074704,146.853147 C97.0099512,146.211944 98.3768493,144.91595 99.0354908,144.91595 C99.4460564,144.91595 99.6569209,145.111152 99.6569209,145.505263 L99.6569209,146.006858 C99.6569209,146.827202 98.7824534,148.068836 98.3421187,148.554371 C97.8472073,149.12021 96.4902322,149.84913 96.4617034,150.471801 C97.186085,150.539751 97.5730834,150.585463 98.1585425,150.223474 L98.1585425,149.881252 L98.6844634,149.881252 C98.9833948,149.881252 98.93502,149.737939 98.9573469,149.467374 L99.2203073,149.467374 L99.3914797,149.467374 C100.005467,148.598847 100.546273,147.798271 100.546273,146.346609 L100.546273,145.922847 C100.546273,145.670814 100.14439,144.542842 100.041438,144.38841 C99.7995645,144.053601 99.2500764,143.734853 98.6844634,143.734853 L98.0667544,143.734853 C97.7020829,143.734853 97.6065737,143.813922 97.5321509,144.070897 L97.094297,144.153673 L97.094297,144.409412 L96.7333465,144.409412 C96.6936544,144.481069 96.2905311,145.254465 96.2905311,145.254465 L96.2905311,145.505263 C96.2905311,145.870958 96.4617034,145.814127 96.4617034,146.187235 L96.476588,146.262598 C96.476588,146.481274 96.8077693,146.797551 97.0074704,146.853147 L97.0074704,146.853147 Z M82.3858776,140.28175 C82.4454158,139.854282 82.5781364,139.282265 82.7877606,138.980814 C83.0879324,138.560758 83.4476424,138.732487 83.4476424,137.91832 L83.4476424,137.750298 C83.4476424,137.380897 82.9229619,137.284531 82.6463573,137.168398 C82.2134649,137.441434 81.5858329,137.634165 81.5858329,138.343318 C81.5858329,138.737428 81.5027275,138.60647 81.5027275,138.940043 C81.5027275,139.426814 81.2993052,139.624487 81.3166706,140.02601 L81.4270643,142.393146 L81.4345066,142.802083 L81.4183817,143.063999 L81.5821118,145.254465 L81.9703505,148.287512 C81.9852351,148.607496 81.533737,148.890415 81.4183817,149.042377 L80.2685499,149.244992 L78.853277,149.320354 L78.6647393,149.295645 L77.6947626,149.383363 L77.2494664,149.363595 L76.5449309,149.295645 C75.5191371,149.151097 75.1507444,148.498775 75.1184945,147.432576 C74.9274761,147.362155 74.5814102,146.87662 74.5032663,146.691302 L74.244027,146.691302 C74.0294414,146.691302 74.0009127,146.655473 73.89424,146.601113 C73.6312796,146.722188 73.3273866,146.813612 73.0780704,146.927274 C72.5558706,147.139773 73.1214836,147.112593 72.4665633,147.432576 L72.0386324,147.100238 L72.1192571,146.940864 C71.8637389,146.834615 71.9232771,146.867972 71.8513351,146.517102 C71.4792213,146.487451 71.6479129,146.436797 71.3179719,146.436797 C71.2361069,146.436797 71.1430784,146.52575 71.1430784,146.601113 C71.1430784,146.87662 71.6677589,147.520293 71.6677589,148.115784 C71.6677589,148.373994 71.7086915,148.424648 71.7508644,148.622321 C71.651634,148.826172 71.6677589,148.729806 71.6677589,149.042377 L71.6677589,149.214105 C71.6677589,149.578565 71.4879039,149.524205 71.4879039,149.881252 L71.4879039,149.973911 C71.4879039,150.389025 72.1577088,150.980809 72.4665633,150.980809 L72.5558706,150.980809 C72.7592928,150.980809 72.825033,150.931391 72.825033,150.728776 C72.825033,150.539751 72.7543313,150.555812 72.6501395,150.389025 C72.8423983,149.981324 72.8659655,149.18569 73.0929549,148.785402 C73.2343582,148.522249 73.704462,147.695728 74.0567297,147.695728 C74.2613923,147.695728 74.2527097,147.763678 74.4201609,147.866221 L74.5268335,148.621086 C74.54792,148.852116 74.3755072,149.438958 74.3196902,149.636631 C74.6149005,150.153053 75.2301287,151.156244 76.0115677,151.156244 L76.0996347,151.156244 C76.3650759,151.156244 76.4208929,151.193308 76.6292767,151.235313 L77.2358222,151.127828 C77.5211095,151.113003 77.464052,151.117945 77.6947626,151.073468 L77.6947626,151.235313 C78.117732,151.226665 78.2802217,151.203191 78.3186735,150.814022 L78.9388632,150.967219 C79.1472469,150.931391 79.1919006,150.898033 79.4598225,150.898033 C79.8803112,150.898033 80.0862142,151.006753 80.3479342,150.985751 C80.6580291,150.961042 80.7026827,150.814022 81.1454982,150.814022 L81.4183817,150.814022 C82.844818,150.814022 82.6017037,150.203706 83.0990958,149.881252 C82.9862213,149.665047 83.0135096,149.952909 83.0135096,149.636631 L83.0135096,149.380892 C83.0135096,149.064615 83.0197115,149.164687 82.9229619,148.960836 C82.9626541,148.785402 83.040798,148.690271 83.0135096,148.543252 L82.1725324,144.070897 L82.2395129,143.652077 L82.2134649,143.304914 L82.1799746,141.798891 L82.2134649,141.628398 L82.3858776,140.28175 Z M102.755389,148.20103 C103.333406,148.20103 104.030499,149.006548 104.359199,149.295645 L103.820875,149.295645 C103.38054,149.295645 102.3994,148.911418 102.3994,148.543252 L102.3994,148.365346 C102.3994,148.016947 102.535842,148.20103 102.755389,148.20103 L102.755389,148.20103 Z M108.029482,146.325606 L108.072895,146.601113 L107.863271,146.583817 L108.029482,146.325606 Z M102.322496,146.935922 C101.895806,146.935922 101.42074,147.452343 101.42074,147.695728 L101.42074,147.866221 C101.42074,148.322105 101.596874,148.322105 101.611759,148.785402 C101.754402,148.847174 102.430409,149.555091 102.644995,149.742881 C102.82361,149.901019 103.714202,150.300072 103.989566,150.300072 C104.191748,150.300072 104.186787,150.246947 104.359199,150.143169 C104.508045,150.416205 104.603554,150.644765 105.061254,150.644765 C105.264676,150.644765 105.295686,150.616349 105.416003,150.563224 C105.847655,150.84738 105.811684,151.017873 106.415748,151.292144 C106.673747,151.410748 107.476273,151.655368 107.803733,151.655368 L107.895521,151.655368 C108.417721,151.655368 108.792315,151.577535 109.13466,151.405806 L109.078843,150.980809 L109.654379,150.980809 L109.965714,150.495274 L110.283251,150.471801 C110.547452,150.020859 111.254469,149.636631 111.254469,148.960836 C111.254469,148.591435 111.441766,148.656914 111.441766,148.289983 L111.441766,147.02364 C111.020037,147.056997 110.991508,147.294205 110.991508,147.695728 L110.991508,147.866221 L110.73723,147.965058 L110.733509,148.20103 C110.733509,148.671739 110.398607,148.847174 110.184021,149.107856 C109.795782,149.573623 109.654379,149.383363 109.397621,149.71323 C108.843171,149.730526 108.843171,149.973911 108.240347,149.973911 L107.451465,149.973911 C107.20463,149.973911 107.20463,149.929435 107.011131,149.881252 C107.070669,149.656399 107.977386,148.792814 107.977386,148.289983 L107.984828,148.040421 C107.984828,147.667313 108.157241,147.730321 108.157241,147.362155 L108.157241,146.098282 C108.157241,145.510205 107.911646,145.455844 107.803733,145.088914 L107.451465,145.153157 C107.070669,144.981429 107.121524,145.107446 106.926785,144.738044 L106.739487,144.738044 L105.959289,144.849235 L105.851376,144.826997 C105.602059,144.826997 105.513993,145.022199 105.416003,145.163041 L105.162965,145.075324 L104.629602,145.285351 L104.403853,145.542326 C104.331911,145.768415 104.266171,145.800537 104.266171,146.098282 C104.266171,146.40344 104.618439,146.722188 104.705265,147.02364 L105.148081,147.02364 C105.295686,146.482509 106.119298,145.75359 106.828795,145.75359 C106.990044,145.75359 107.158736,145.870958 107.27037,145.922847 L107.27037,146.098282 L107.27037,146.187235 C107.27037,147.031052 106.175115,148.960836 105.50531,148.960836 C105.295686,148.960836 103.813432,146.935922 102.493669,146.935922 L102.322496,146.935922 Z M87.0645889,145.863545 C86.8103111,145.62016 85.7038926,144.995019 85.3082116,144.995019 C85.1618468,144.995019 85.103549,145.232227 84.995636,145.378011 L85.6753639,146.006858 L86.3724571,146.105695 C86.5609948,146.363905 87.1018002,146.722188 86.9951276,147.362155 L86.8896954,148.040421 C86.7817823,148.115784 86.2819094,148.874354 86.2819094,149.042377 C86.2819094,149.282055 86.3240823,149.282055 86.3724571,149.467374 L86.0983333,149.545208 L85.9346032,149.464903 C85.8291709,149.608216 85.3937978,150.123402 85.3937978,150.300072 L85.3937978,150.563224 L85.1370392,150.563224 L84.9633861,150.563224 C84.6756181,150.958571 84.5416571,151.147596 84.1236492,151.449047 C84.0082939,151.534294 83.3608159,152.210089 83.3608159,152.33487 C83.3608159,152.491773 83.3893446,152.488067 83.4476424,152.594316 C83.982246,152.462122 83.6969587,152.242211 84.2476872,152.242211 C84.4250614,152.242211 84.4027346,152.278039 84.5044457,152.33487 C84.7971753,152.09272 85.3640287,151.895047 85.7683923,151.593596 C85.9842184,151.426809 86.6279753,150.898033 86.7892246,150.707773 C87.1278482,150.3359 88.1387574,148.836055 88.1387574,148.289983 L88.1387574,148.20103 C88.1387574,148.005828 88.1772092,147.981119 88.2379878,147.866221 C88.1858919,147.678432 88.1387574,147.67349 88.1387574,147.432576 C88.1387574,146.896388 87.3908086,146.187235 87.0645889,145.863545 L87.0645889,145.863545 Z M94.1682419,142.047218 C94.3766256,142.047218 94.3964717,142.023745 94.5180289,141.969384 L95.3081506,142.169528 C95.2759007,141.697584 94.5130674,140.778404 93.8990795,140.778404 C93.0940733,140.778404 92.3932589,141.149041 91.9355589,141.523384 C91.3711863,141.973091 90.951938,142.67483 90.6232375,142.8898 L90.5165648,143.652077 L90.540132,144.153673 C90.540132,144.520603 91.0201589,145.129684 91.2682348,145.302648 C91.7172521,145.601628 92.2989901,145.676991 92.4862874,145.922847 L92.8397955,145.922847 C92.2965093,146.69995 90.6232375,146.935922 90.6232375,147.866221 C90.6232375,148.191147 91.0102358,148.591435 91.3389364,148.622321 L92.3039516,148.729806 L92.4862874,148.702626 C93.086631,148.702626 94.1670015,149.006548 94.1670015,149.636631 C94.1682419,149.861485 94.2116552,149.867662 94.2525877,150.052981 C94.1682419,150.410028 93.9127237,150.872089 93.6584459,151.089529 C93.5430906,151.193308 92.7765361,151.577535 92.566912,151.577535 C92.4118646,151.577535 91.8028383,151.685019 91.687483,151.743086 L91.3389364,151.644249 L90.4508247,151.683784 L89.6520204,151.56518 L89.2166472,151.315618 C89.3493678,151.897518 89.6172897,151.874044 90.0948358,152.075424 C90.612074,152.300277 90.4346998,152.664737 91.0734952,152.664737 L91.239706,152.664737 C91.5510413,152.664737 91.3786285,152.833995 91.687483,152.833995 C92.1761925,152.833995 92.3163554,152.958776 92.7492478,152.918006 L93.9871465,152.811756 L93.9871465,152.664737 L94.1670015,152.757396 C94.439885,152.357108 94.7499798,152.426294 94.8740178,151.998826 C95.3404004,151.955585 95.6765433,150.894327 95.6765433,150.389025 C95.6765433,150.083867 95.2039587,149.350005 95.0551132,149.130094 C94.7251722,148.6878 94.2501069,148.710039 93.9871465,148.365346 L92.664902,148.171379 C92.6004023,147.953939 92.566912,148.055246 92.566912,147.866221 C92.566912,147.638897 92.69095,147.468404 92.8397955,147.362155 L92.8397955,147.520293 C93.5430906,147.364626 93.3942451,146.98287 93.7291476,146.853147 L93.7291476,146.601113 C93.7291476,146.309545 93.8990795,146.470155 93.8990795,146.187235 L93.8990795,145.922847 C93.8990795,145.585567 92.7356036,145.163041 92.3932589,145.163041 L92.2158846,145.163041 L92.1216158,144.91595 L91.7705884,144.91595 C91.7705884,144.426709 91.8028383,143.675551 92.2158846,143.560653 C92.2233269,143.181368 92.3039516,143.277734 92.3039516,142.973811 C92.3039516,142.67483 93.7477532,142.047218 94.1682419,142.047218 L94.1682419,142.047218 Z M109.930984,132.950547 C110.580943,132.940664 111.626582,132.107965 113.119999,132.107965 C113.377998,132.107965 114.273552,132.531727 114.472013,132.677511 C114.718848,132.84924 115.164145,133.370603 115.305548,133.64858 C115.723556,134.417035 116.132881,135.292974 116.132881,136.402414 L116.132881,137.409312 L115.929459,139.089534 C115.909613,139.397163 115.866199,139.344038 115.866199,139.609661 C115.877363,140.284221 115.515172,140.761107 115.515172,141.371423 C115.515172,141.798891 114.98553,142.757606 114.98553,143.232022 C114.98553,143.813922 114.444724,145.006138 114.444724,145.585567 C114.444724,146.150171 113.892756,147.629014 113.733987,148.20103 C113.629795,148.607496 112.942625,150.502687 112.942625,150.644765 L112.942625,150.898033 C112.942625,151.193308 112.768972,151.031463 112.768972,151.32056 L112.768972,151.489817 C112.768972,151.72826 112.73052,151.631895 112.584155,151.743086 C112.56803,152.426294 111.707207,153.685225 111.707207,154.440089 L111.707207,154.76625 C112.363368,154.763779 112.556867,154.242416 112.716876,153.70005 C112.86076,153.22687 112.682145,153.371418 113.008365,152.983485 C113.101394,152.882177 113.38296,152.444826 113.38296,152.33487 L113.38296,152.242211 L113.38296,152.075424 L114.124707,151.113003 L114.195408,150.814022 L115.236087,148.446886 C115.170346,148.409823 115.066155,148.409823 115.066155,148.289983 C115.066155,147.976177 115.456874,147.512881 115.595797,147.271967 L115.491605,146.859324 C115.861238,146.72713 115.90217,146.068631 115.960468,145.676991 C116.043574,145.163041 116.212265,145.069146 116.212265,144.325401 L116.48887,144.325401 L116.407005,143.734853 C116.682369,142.571052 117.017271,141.901434 117.194646,140.446066 L117.30628,139.609661 C117.344732,139.12042 117.465048,138.857268 117.465048,138.424858 L117.465048,138.170354 C117.465048,137.35001 117.167357,136.22945 116.965175,135.522769 C116.655081,134.48622 116.382197,134.142763 116.018766,133.313772 C115.732238,132.668863 115.236087,131.854697 114.596051,131.539655 C113.271326,130.899688 113.980823,130.925633 112.230647,130.925633 C111.966446,130.925633 111.992494,131.029411 111.966446,131.264148 C111.610457,131.232026 111.772947,131.181373 111.441766,131.181373 C110.86747,131.181373 110.403568,131.369162 109.991762,131.560658 C109.717638,131.684204 109.577476,131.713855 109.391419,131.846048 C109.078843,132.098082 109.328159,132.277223 108.961007,132.277223 L108.870459,132.277223 C107.850867,132.277223 105.416003,134.597412 105.416003,135.558597 L105.416003,135.814337 C105.416003,136.65939 106.144105,138.108581 106.828795,138.256836 C106.952833,138.049279 106.926785,138.274132 106.926785,138.096226 C106.926785,138.036924 106.447998,137.409312 106.394662,137.330243 C106.428152,137.137511 106.48521,137.137511 106.48521,136.910187 C106.48521,136.117024 106.222249,136.182503 106.758093,135.491883 C107.085553,135.080475 107.183543,134.821029 107.658609,134.502281 C107.9563,134.297195 108.482221,133.793129 108.753864,133.679467 C109.174352,133.481794 109.685389,133.266824 109.930984,132.950547 L109.930984,132.950547 Z M55.0925686,148.040421 L55.2538179,148.02436 L55.1657509,147.883518 L55.0925686,148.040421 Z M64.5268945,148.406116 L64.61,148.176321 L64.7613263,148.176321 L64.4673563,148.102194 L64.5268945,148.406116 Z M61.8501557,148.702626 L62.0039628,148.702626 L62.0039628,148.406116 L61.8501557,148.406116 L61.8501557,148.702626 Z M34.9537681,146.373789 C35.3829394,146.083457 35.4127085,145.702936 36.0564654,145.554681 C36.1656188,145.748648 36.1383304,145.53862 36.1383304,145.71282 C36.1383304,146.573933 35.1075751,147.196604 34.4849046,147.507939 C34.5258372,147.02364 34.9475662,146.98287 34.9537681,146.373789 L34.9537681,146.373789 Z M41.0911655,142.571052 L41.0911655,142.711894 C41.5153753,142.723013 41.6270094,142.855207 41.7200379,143.165307 L41.9606715,143.165307 C41.9309024,143.463052 41.8825276,143.348155 41.8825276,143.543357 C41.8825276,144.124022 42.0437769,144.206797 41.8254701,144.760282 C41.66174,145.181573 41.7088745,145.643634 41.3987796,145.870958 L41.4942888,146.006858 C41.354126,146.098282 41.3317991,146.027861 41.3317991,146.234182 C41.3317991,146.640648 40.9373585,146.867972 40.9373585,147.285557 C40.9373585,147.611717 40.8406089,147.620365 40.6210617,147.730321 L40.6210617,148.040421 C40.3581013,148.208443 40.3853896,148.607496 40.118708,148.826172 C39.8433438,149.062144 39.6027102,149.127623 39.5940275,149.595861 C39.1164815,149.69964 39.2764904,149.951673 38.7642137,150.300072 C38.5707145,150.429795 38.5273012,150.532338 38.3424847,150.650942 C38.1477451,150.775723 38.0212264,150.775723 37.8475733,150.931391 C37.4171616,151.292144 37.5424399,151.32056 36.8639524,151.474992 C36.5898285,151.555296 35.8976968,151.771501 35.5950442,151.771501 L35.5069773,151.771501 C34.7404228,151.771501 33.9428588,150.995634 33.9428588,150.355668 L33.9428588,150.052981 C33.9428588,149.859014 33.9168109,149.872604 33.8634745,149.750294 C33.9168109,149.644044 33.9428588,149.632925 33.9428588,149.45749 C33.9428588,148.622321 34.3348187,148.847174 34.5816542,148.409823 C34.6449136,148.278864 35.4548814,147.763678 35.5950442,147.730321 C35.6223326,147.330033 36.6840974,146.98287 36.6840974,146.006858 L36.6840974,145.554681 C36.6840974,145.285351 36.0142925,144.817113 35.6583036,144.817113 L35.3482087,144.817113 C35.0095851,144.817113 34.3918762,145.315002 34.116512,145.510205 C34.0048778,145.601628 33.3040634,146.517102 33.3040634,146.603584 L33.3040634,147.196604 L32.9096228,147.285557 C32.8314789,147.603069 32.7719406,147.414044 32.7719406,147.658665 L32.7719406,147.953939 C32.3626154,148.055246 32.4308363,148.191147 32.2819908,148.476537 C32.3390482,148.591435 32.3626154,148.607496 32.3626154,148.773047 L32.3626154,149.904726 C32.3626154,151.56518 34.244271,152.900709 36.1383304,152.900709 L36.369041,152.900709 C38.1551874,152.900709 39.6548061,151.587418 40.3940723,150.582992 C40.9088297,149.852836 41.0812425,149.406836 41.4607986,148.522249 C41.5761539,148.26651 41.7274802,147.530177 41.7882588,147.271967 C41.8825276,146.845734 42.197584,146.24036 42.197584,146.083457 C42.197584,145.800537 42.3526314,145.534914 42.3848813,145.354537 C42.4779097,144.907302 42.6689282,145.066675 42.6689282,144.66021 L42.6689282,144.436592 C42.6689282,144.246332 42.6466013,144.253745 42.603188,144.14626 L42.6689282,143.764504 L42.5275249,143.776858 L42.5870631,143.388925 C42.1380458,143.239434 42.2062666,142.485805 41.4942888,142.485805 C41.3615682,142.485805 41.1829536,142.52534 41.0911655,142.571052 L41.0911655,142.571052 Z M9.8075558,144.364936 C10.3012268,145.276703 11.5329236,144.776343 11.5329236,145.785712 L11.5329236,145.859839 C11.5329236,146.505983 10.8891667,147.112593 10.8891667,147.134831 C10.8891667,147.330033 10.9350607,147.341152 10.9759932,147.507939 L10.520774,147.512881 L10.108968,148.259097 C9.46024956,148.306044 9.03107828,149.340122 8.30545631,149.524205 C8.30545631,149.687285 8.26452379,149.904726 8.45802298,149.904726 C10.2975057,149.904726 12.6988803,148.040421 12.6988803,146.312016 L12.6988803,146.234182 C12.6988803,145.601628 12.2262957,145.064205 11.7896821,144.776343 C11.148406,144.378526 10.7217154,144.380997 10.0841604,144.043717 L9.8075558,144.364936 Z M64.7613263,148.176321 C65.1073921,148.446886 64.4127796,150.052981 63.9798872,150.052981 L63.7466959,150.052981 L63.8918203,149.967734 C63.7913495,149.771296 63.8211186,150.03692 63.8211186,149.750294 L63.8211186,149.524205 L63.9798872,149.524205 C63.9873295,148.934892 64.2812994,148.755751 64.5268945,148.406116 L64.4673563,148.102194 L64.7613263,148.176321 Z M63.1153427,149.006548 L63.0272758,149.750294 C62.9826221,150.143169 63.6859173,151.026521 64.2093574,151.026521 C64.8047395,151.026521 64.943662,150.886914 65.2041417,150.555812 C65.3728333,150.361845 65.7089761,149.810831 65.7089761,149.524205 C65.7089761,149.320354 65.669284,149.316648 65.6147073,149.151097 L65.8665043,148.847174 C65.803245,148.763163 65.7833989,148.771811 65.7833989,148.626028 L65.7833989,148.323341 L65.633313,148.323341 C65.633313,147.705612 65.5328423,147.801978 65.3207374,147.421457 C65.0627385,146.943335 64.8915661,147.02364 64.6782208,146.756781 C64.1138482,147.120005 63.9972525,146.914919 63.5767639,147.583302 C63.3683801,147.918111 63.174881,148.514836 63.1153427,149.006548 L63.1153427,149.006548 Z M30.6298054,151.771501 L30.7935354,151.683784 L30.7935354,151.468814 C30.6099593,151.512055 30.4028159,151.577535 30.6298054,151.771501 L30.6298054,151.771501 Z M48.95145,149.679872 C49.203247,149.524205 49.5257457,148.92995 49.8221963,148.92995 L50.2141562,148.92995 C50.2860983,149.18569 50.4547899,149.282055 50.4547899,149.595861 C50.4547899,150.170349 49.9003403,150.650942 49.2714679,150.650942 L49.203247,150.650942 C48.8609023,150.650942 48.8001237,150.300072 48.8001237,149.973911 L48.95145,149.973911 L48.95145,149.679872 Z M46.4471239,149.679872 C46.4471239,149.967734 46.1395098,150.355668 45.8864724,150.355668 L45.8046074,150.355668 C45.5763775,150.355668 45.4883106,150.279069 45.3394651,150.203706 L45.2724846,149.524205 L45.3617919,149.006548 C46.0898946,149.013961 46.0179526,149.342593 46.4471239,149.45749 L46.4471239,149.679872 Z M55.0925686,148.040421 L55.1657509,147.883518 L55.4473171,147.477052 L55.5465474,147.507939 L55.4386344,149.380892 C55.3604905,150.109812 55.9620745,150.662061 56.5872258,150.801668 L56.4458225,151.178482 L56.2758905,151.178482 C55.9620745,151.178482 56.0960355,151.248903 55.715239,151.248903 C55.5601916,151.248903 55.5849992,151.277319 55.4820477,151.32056 L55.185597,151.156244 C55.0578379,151.358859 55.0925686,151.156244 55.0925686,151.32056 C55.0925686,151.449047 55.1942797,151.601008 55.2451352,151.692432 L55.5601916,151.631895 L55.8913729,151.991413 C56.2374388,151.998826 56.1444103,152.069247 56.4259765,152.069247 C56.8241383,152.069247 57.6800001,151.849335 57.6800001,151.398393 C57.6800001,151.178482 57.0821372,150.460681 56.7459943,150.416205 C56.6455236,150.087573 56.486755,150.123402 56.1853428,149.973911 L56.1853428,149.82195 L56.1853428,149.524205 C56.1853428,149.268465 56.6641293,148.418471 56.6641293,148.040421 L56.6641293,147.432576 C56.6641293,147.044642 56.2833328,146.775313 56.1047182,146.534399 L55.5601916,146.450387 C55.0665206,146.775313 54.9151943,146.827202 54.691926,147.421457 C54.5988975,147.667313 54.0704959,148.533368 54.0704959,148.554371 C54.0704959,148.785402 53.8497084,149.12021 53.750478,149.303058 L53.5991517,149.303058 L53.3609989,149.303058 L53.4168159,148.920066 L53.3535566,148.634676 L53.6996225,148.208443 L53.7777664,148.254155 L53.6661322,147.583302 C53.9811886,147.468404 54.3111295,146.625822 54.3111295,146.234182 C54.3111295,145.742471 53.9985539,145.411368 53.8335834,145.111152 L53.678536,145.111152 L53.5185271,145.111152 C52.35133,145.111152 49.9003403,147.953939 49.5815627,147.953939 C49.5257457,147.953939 48.95145,147.67349 48.95145,147.432576 C48.95145,147.362155 49.8854557,146.691302 49.9784842,145.940144 L50.0801953,145.111152 C50.0801953,144.91595 49.7750619,144.738044 49.4959766,144.738044 L49.1126993,144.738044 C47.3538413,144.738044 45.5813391,146.601113 44.943784,147.730321 L44.7874962,147.730321 L44.7118331,147.730321 C44.1350566,147.730321 43.956442,148.040421 43.6004531,148.259097 L43.6252607,148.554371 C43.5818474,148.92995 44.100326,149.209163 44.3980171,149.228931 C44.2901041,149.424133 44.3173924,149.164687 44.3173924,149.45749 L44.3173924,149.679872 L44.2975463,150.052981 C44.3173924,150.737424 45.3903206,151.692432 46.045241,151.692432 L46.5277486,151.692432 C46.5984502,151.489817 46.5984502,151.500936 46.9172277,151.468814 C46.934593,151.235313 47.2012746,150.688006 47.3042261,150.277834 C47.264534,150.109812 47.2186399,150.103634 47.2186399,149.904726 C47.2186399,149.810831 46.9420353,149.363595 46.9172277,149.006548 L46.538912,148.755751 L46.5277486,148.476537 L46.0601255,148.171379 C46.0985773,148.075014 46.3565762,147.667313 46.3565762,147.583302 L46.3565762,147.507939 C46.3565762,147.243551 47.9827136,146.450387 48.3300199,146.373789 L48.1166746,146.712304 L48.0025597,147.285557 C47.9343388,147.705612 48.6413551,148.322105 48.95145,148.476537 C48.6413551,149.107856 47.9343388,149.479728 47.9343388,150.277834 L47.9343388,150.725069 C47.9343388,151.368742 48.8360947,151.844393 49.5815627,151.844393 L49.6646682,151.844393 C50.4709148,151.844393 51.3887956,150.922742 51.3887956,150.277834 L51.3887956,150.052981 C51.3887956,149.340122 50.6073565,148.626028 50.1285701,148.323341 C50.4101362,147.947762 52.2483785,146.691302 52.8884143,146.691302 C52.8884143,147.37698 52.2558208,148.346814 52.2558208,149.524205 C52.2620227,150.246947 52.5745983,151.178482 53.2803742,151.178482 L53.5185271,151.178482 C53.9315734,151.178482 54.9226366,149.424133 54.9300789,148.847174 L55.0888474,148.771811 L55.0032612,148.634676 L55.185597,148.492598 L55.0925686,148.040421 Z M26.467092,148.626028 C26.467092,148.322105 27.0761183,147.801978 27.490405,147.801978 L27.6417313,147.801978 C27.902211,147.801978 28.0386527,148.075014 28.0386527,148.323341 L28.0386527,148.406116 C28.0386527,148.819994 27.892288,148.806404 27.8798842,149.228931 C27.6590966,149.373479 27.4730397,149.750294 27.1716275,149.750294 L27.0203012,149.750294 C26.6767161,149.750294 26.467092,149.214105 26.467092,148.847174 L26.467092,148.626028 Z M30.6298054,151.771501 C30.4028159,151.577535 30.6099593,151.512055 30.7935354,151.468814 C31.1867357,151.193308 31.6493973,149.524205 31.6493973,148.847174 C31.6493973,148.522249 31.82181,148.581551 31.82181,148.259097 L31.82181,147.953939 C31.82181,147.785917 31.8379349,147.763678 31.8900309,147.658665 C31.7821179,147.458521 31.82181,147.721673 31.82181,147.432576 C31.82181,147.071822 31.9222807,146.87662 31.8825886,146.625822 C31.8379349,146.358964 31.7287815,146.262598 31.7287815,145.859839 L31.7287815,145.785712 L31.6680029,145.111152 C31.6121859,144.894947 31.6444357,144.982664 31.498071,144.886299 C31.481946,144.053601 30.2688549,142.940454 29.2976379,142.940454 L28.9031972,142.940454 C27.9580281,142.940454 27.2857424,143.509999 26.7436966,143.960941 C26.1284684,144.474892 25.6583646,145.676991 25.5231632,145.785712 C25.5082787,146.110637 25.3482697,146.358964 25.2788085,146.813612 C25.2056261,147.163246 25.1374052,147.416515 25.1374052,147.883518 L25.1374052,148.773047 C25.1374052,149.258582 26.7399755,151.089529 27.3303961,151.089529 L27.490405,151.089529 C28.3537091,151.089529 29.2976379,150.156759 29.2976379,149.380892 C29.3063205,149.130094 29.2244555,149.320354 29.1450712,149.006548 L29.4588872,148.554371 C29.347253,148.323341 29.3385704,148.055246 29.1872441,147.763678 C29.1587154,147.705612 28.8151303,147.17313 28.7704766,147.116299 C28.5968235,146.881562 27.5462221,146.615939 27.1716275,146.534399 C27.4110207,145.601628 28.3710744,144.292044 29.5308292,144.292044 L29.6126942,144.292044 C30.4573926,144.292044 31.0751016,145.254465 31.0205249,146.006858 L30.9671886,148.176321 L30.9473425,148.323341 C30.9473425,148.607496 30.8778812,148.503717 30.8667178,148.847174 L31.1085918,148.920066 C30.9671886,149.12021 30.4784791,150.208648 30.4784791,150.571873 C30.4784791,150.859734 30.432585,150.886914 30.2378455,150.947452 L30.3370758,151.32056 C30.0431059,151.426809 29.6126942,152.254565 29.5308292,152.596787 C29.6957996,152.922948 29.4998197,152.958776 30.0058945,152.963718 C30.0158175,152.462122 30.1212498,152.394172 30.4784791,152.218737 L30.4784791,151.919756 L30.7166319,151.919756 L30.6298054,151.771501 Z M15.6199738,155.286377 L15.8519248,155.286377 L15.8519248,155.136887 L15.6199738,155.136887 L15.6199738,155.286377 Z M15.6199738,155.286377 L15.6199738,155.136887 L15.8506844,155.136887 L15.8506844,155.286377 L15.947434,155.349385 L16.1607793,155.206072 C16.2488462,155.328383 16.1806253,155.364211 16.4014129,155.364211 C16.6048351,155.364211 17.4247259,154.935507 17.578533,154.836671 C17.5921771,154.29307 17.5772926,154.550045 17.8948297,154.550045 L17.974214,154.550045 C18.5249425,154.550045 19.2257568,153.22687 19.2257568,152.517718 L19.2257568,152.444826 C19.2257568,150.600288 16.5601814,150.020859 16.5601814,149.228931 C16.5601814,149.12021 17.2262652,148.634676 17.3428609,148.554371 C17.8551376,148.215856 17.6355904,148.219562 17.8948297,147.730321 L17.8018013,147.285557 C17.5921771,147.139773 17.5078313,146.951983 17.2337075,146.783961 C16.9955546,146.632 16.764844,146.601113 16.4857587,146.534399 L15.9325494,146.625822 L15.3780998,146.603584 L15.2180909,146.603584 L14.9762169,146.083457 C15.3036771,146.043922 15.7192042,145.658459 15.9238668,145.479318 C16.0131741,145.40272 16.7115077,144.826997 16.7139885,144.817113 L17.0290449,144.817113 C17.1009869,144.694803 17.7881571,144.206797 17.8948297,144.206797 C18.046156,144.206797 18.0312715,144.231506 18.1230595,144.292044 C18.2582609,144.203091 18.4455582,144.127728 18.4455582,143.907817 C18.4455582,143.636016 17.7298592,143.239434 17.2733996,143.239434 C15.9821646,143.239434 13.9677884,145.044437 13.9677884,146.157584 L13.9677884,146.450387 C13.9677884,146.87662 14.3485849,147.122476 14.7008527,147.252199 C15.0866107,147.395512 15.453763,147.583302 15.7713001,147.658665 C15.6199738,148.259097 14.8298521,148.171379 14.8298521,149.006548 C14.8298521,150.052981 17.8179262,150.143169 17.8179262,151.919756 L17.8179262,152.444826 C17.8179262,153.393657 15.8506844,154.32272 14.5879781,154.32272 L14.2009798,154.32272 C13.3525602,154.32272 13.3748871,153.95579 12.6988803,153.936022 C12.7212071,154.629114 13.0908402,154.44256 13.4418675,154.879912 C13.7011068,155.208543 14.0397304,155.364211 14.5185169,155.437103 L15.1387066,155.530998 C15.3954652,155.550765 15.5083397,155.393862 15.6199738,155.286377 L15.6199738,155.286377 Z M12.1431903,137.482204 C12.1431903,135.646315 16.1917887,131.947356 18.1230595,131.947356 L18.6068075,131.947356 C19.1302476,131.947356 19.8757157,132.474896 20.2155796,132.712104 C20.6683181,133.02591 20.9598073,133.532447 21.2215274,134.020453 C21.9024957,135.246027 22.1604946,135.814337 22.3006575,137.547683 L22.4891951,139.802393 L22.4519838,140.625207 L22.4730702,140.998315 L22.4519838,142.788492 L22.2758499,144.66021 L22.3006575,144.738044 L22.1344466,146.373789 C22.1046775,146.655473 22.0873122,146.627058 21.9905626,146.827202 C22.1604946,147.558593 22.0649854,147.228726 22.0649854,147.953939 C22.0649854,148.102194 22.0873122,148.084897 22.1418889,148.176321 C21.9955241,148.387584 21.9024957,148.498775 21.9024957,148.847174 L21.9024957,149.006548 C21.9024957,149.524205 21.6693043,149.747823 21.6693043,150.052981 L21.6693043,150.725069 L21.5452664,151.461402 L21.5068146,151.618305 L21.6010835,151.771501 C21.534103,151.887634 21.5142569,151.877751 21.5142569,152.069247 C21.5142569,152.213795 21.534103,152.200205 21.5924008,152.300277 C21.4137862,152.378111 21.2748637,152.364521 21.2748637,152.596787 C21.2748637,152.705507 21.5924008,152.854997 21.5924008,152.963718 C21.5924008,153.109502 21.4658821,153.092205 21.3505268,153.123092 L21.3505268,153.641984 C21.3505268,154.188056 20.9598073,154.960216 20.9598073,155.067701 L20.9598073,155.521114 L21.0416723,156.783751 C21.0702011,157.17292 20.8097214,157.412599 20.8097214,157.452133 C20.8097214,157.898133 20.9598073,158.097042 20.9598073,158.507214 C21.4807667,158.865496 20.9201152,158.885264 21.9024957,159.097762 C21.9905626,158.786427 22.2237539,158.263829 22.2237539,157.987086 L22.2237539,157.825242 C22.2237539,157.548499 22.3738398,157.358239 22.3738398,157.013546 L22.3738398,156.938183 C22.3738398,156.437823 22.6219157,156.082011 22.6219157,155.808975 C22.6219157,155.393862 22.8464244,154.935507 22.8464244,154.461092 L22.8464244,154.242416 L23.103183,152.747513 L23.0945003,152.370698 L23.6340654,148.92995 L23.8201223,146.905036 L24.0880442,142.940454 L24.1016884,142.342492 L24.208361,141.596276 C24.208361,141.424548 24.1575055,141.386249 24.1016884,141.287412 C24.208361,141.102093 24.1909957,141.36401 24.1909957,141.072442 C24.1909957,141.058852 24.1016884,140.930365 24.1016884,140.920481 L24.1959572,140.778404 C24.1326979,140.64621 24.1016884,140.662271 24.1016884,140.47201 L24.1016884,139.724559 L23.8573337,137.788597 L23.8660163,137.624282 C23.8660163,137.361129 23.7109689,137.149866 23.7109689,136.884243 C23.7109689,136.208448 22.4829932,134.097051 22.1046775,133.616459 C21.7276022,133.117334 21.3914593,132.757816 21.0131436,132.277223 C20.8258463,132.014071 19.8533888,131.298741 19.7864083,131.055356 C19.3919677,131.01335 19.4936788,130.893511 19.1562956,130.893511 L18.9900848,130.893511 C18.7730184,130.893511 18.8474411,130.874979 18.7519319,130.745256 C18.3227606,130.740314 18.3227606,130.600708 17.8948297,130.600708 L17.742263,130.600708 C17.3738704,130.600708 16.4857587,130.748963 16.4857587,131.055356 L16.4857587,131.266619 C16.1607793,131.234497 16.2997018,131.193727 16.0131741,131.193727 C15.5083397,131.193727 14.2592776,132.31058 13.8871638,132.531727 L13.8871638,132.693572 L13.8871638,132.767699 C13.8871638,133.054326 13.7445201,132.940664 13.4927231,132.918425 C12.8737738,133.305123 11.7289035,134.640653 11.4609816,135.317683 C11.29229,135.763683 10.9350607,136.406121 10.9759932,137.021378 C11.0107239,137.705822 11.5726157,138.09252 11.6110675,138.523694 C11.7896821,138.568171 12.6517458,139.282265 12.6988803,139.420636 L13.0908402,139.420636 C13.0821575,138.975872 12.6777938,138.706542 12.3949873,138.523694 L12.4842946,138.305018 C12.423516,138.237068 12.1431903,137.516797 12.1431903,137.482204 L12.1431903,137.482204 Z M60.6730356,163.515757 L60.8243619,163.515757 L60.9049866,163.295846 L60.6730356,163.295846 L60.6730356,163.515757 Z M59.8109719,158.208233 C59.8109719,157.990793 59.830818,158.069862 59.9697405,157.987086 L60.0230768,157.527496 L59.8977985,157.454604 L60.0317595,157.080261 C60.4373635,157.334765 60.9049866,158.34784 61.1406587,158.507214 C61.1691874,159.530172 61.5512243,159.523995 61.1791104,160.776749 C61.0377072,161.221513 60.5775264,162.400139 60.1223072,162.400139 C59.9139234,162.400139 59.4921944,162.056682 59.4921944,161.950433 C59.4921944,161.796001 59.517002,161.851596 59.5690979,161.651452 L59.4103294,161.608211 C59.6894147,161.499491 59.6584053,161.492078 59.7303473,161.201746 L59.5839825,160.601314 C59.624915,160.490123 59.650963,160.500006 59.650963,160.299862 L59.650963,159.847685 C59.650963,159.63148 59.6894147,159.578355 59.7303473,159.400449 C59.6422803,159.22625 59.650963,159.30779 59.650963,159.029812 L59.650963,158.884028 C59.650963,158.623347 59.8022893,158.770366 59.8022893,158.507214 L59.8109719,158.208233 Z M60.6730356,163.515757 L60.6730356,163.295846 L60.9049866,163.295846 L60.9049866,163.067286 L61.1518221,163.067286 L61.2411294,162.548394 L61.4656381,162.548394 L61.5350993,162.098688 L61.8501557,162.098688 C61.9431842,161.732993 62.1478468,161.710754 62.0039628,161.430306 C62.1738948,161.366062 62.2458368,161.267225 62.2458368,161.047314 C62.2458368,160.892882 62.2210292,160.949713 62.1664525,160.750804 L62.4864704,159.92799 C62.4418167,159.75379 62.4070861,159.700665 62.4070861,159.483225 C62.4070861,159.201541 62.2458368,158.913679 62.2458368,158.586283 C62.2458368,158.310776 61.9481457,157.945081 61.8042617,157.722699 C61.6231663,157.452133 61.5003687,157.112383 61.1406587,157.080261 L60.9744478,156.729391 C60.540315,156.673795 60.8454484,156.616964 60.4373635,156.409408 L60.4373635,156.263624 L60.4373635,156.103014 L60.5117863,155.067701 C60.5676034,154.561164 60.8243619,154.682239 60.8243619,154.242416 L60.8243619,154.168288 C60.8243619,153.936022 60.7958332,153.902665 60.7486988,153.719817 L60.9744478,153.477668 C60.9967747,153.073673 61.1406587,153.074909 61.1406587,152.664737 L61.1518221,152.596787 C61.1518221,152.33487 61.3056291,152.488067 61.3056291,152.218737 C61.3056291,151.991413 61.2274852,151.919756 61.1406587,151.771501 C61.2584947,151.692432 61.4656381,151.371213 61.4656381,151.248903 L61.4656381,151.089529 C61.4656381,150.958571 61.481763,150.961042 61.5350993,150.872089 L61.363927,150.650942 L61.5512243,150.429795 L61.4656381,150.187645 L61.7633292,149.894842 L61.5871953,149.611922 L61.775733,149.595861 L61.775733,149.228931 C61.775733,148.960836 61.83155,148.939834 61.8501557,148.702626 L61.8501557,148.406116 L62.0039628,148.406116 L61.92954,148.259097 L62.2098658,146.984105 L62.1664525,146.312016 C62.1664525,146.132875 62.1825774,146.110637 62.2458368,146.006858 C62.1825774,145.884548 62.1664525,145.898138 62.1664525,145.71282 C62.1664525,145.510205 62.1329622,145.505263 62.0858278,145.33477 C62.1478468,145.232227 62.2011831,145.163041 62.1664525,144.957955 L62.0771452,144.364936 C62.0337319,144.089429 61.92954,143.785506 61.92954,143.608836 C61.92954,143.359274 61.5251763,142.658769 61.4110614,142.393146 C61.1977161,141.886609 60.9533614,141.685229 60.7797083,141.347949 C60.6990836,141.172515 60.1037015,140.621501 59.9362503,140.505368 C59.6584053,140.321285 59.0555809,140.100138 58.6276499,140.100138 L58.395699,140.100138 L57.8449705,140.070487 L57.6800001,140.100138 C57.4455683,140.100138 57.5187507,140.284221 57.0474066,140.324991 L56.7149849,140.879711 C56.6455236,141.396132 56.3267461,141.503617 56.3490729,141.672875 L56.4520244,142.342492 L56.4259765,142.711894 L56.5872258,142.711894 C56.5983892,143.29503 56.9469358,143.960941 57.4455683,144.067191 C57.4455683,143.72744 57.2954824,143.432166 57.2954824,143.165307 C57.2954824,142.994814 57.2681941,142.973811 57.2160982,142.870033 C57.2681941,142.757606 57.2954824,142.762548 57.2954824,142.571052 L57.2954824,142.419091 C57.2954824,142.033628 57.9987776,141.203401 58.395699,141.145334 L59.1002345,141.05144 C59.2862914,141.044027 59.9226061,141.36401 60.0478844,141.444315 C60.3207679,141.618515 60.4596904,141.847074 60.6184589,142.169528 C60.9136692,142.730426 61.3056291,143.181368 61.3056291,143.991828 C61.3056291,144.136376 61.2820619,144.127728 61.2250045,144.206797 L61.2957061,144.436592 C61.2411294,144.556432 61.2250045,144.5379 61.2250045,144.738044 L61.2250045,145.035789 C61.2250045,145.884548 60.5018633,148.543252 60.2438644,149.350005 C60.0230768,150.052981 59.1808592,152.952599 59.1808592,153.570327 C59.1808592,153.919961 59.1002345,153.661751 59.1002345,154.015092 C59.1002345,154.368432 59.0158887,154.554986 58.9389852,154.836671 C58.467641,154.532748 58.3622088,153.719817 57.9987776,153.719817 C57.8958261,153.719817 57.8449705,153.818654 57.8449705,153.936022 L57.8449705,154.094161 C57.8449705,154.550045 58.0223448,154.849025 58.2840648,155.094881 C58.611525,155.397568 58.6598998,155.616244 58.7789762,155.892987 L58.6921497,156.183319 L58.3584876,159.029812 L58.395699,161.201746 C58.395699,161.809591 58.611525,162.120926 58.6276499,162.620051 C59.0295329,162.90297 59.0878307,163.654128 59.9697405,163.662777 L60.1744031,163.91481 L60.6730356,163.515757 Z" id="Fill-24" fill="#231F20"></path>
                        </g>
                    </g>
                </g>
            </g>
        </g>
    </g>
</svg>