<?xml version="1.0" encoding="UTF-8"?>
<svg width="40px" height="40px" viewBox="0 0 40 40" version="1.1" xmlns="http://www.w3.org/2000/svg" xmlns:xlink="http://www.w3.org/1999/xlink">
    <!-- Generator: Sketch 46 (44423) - http://www.bohemiancoding.com/sketch -->
    <title>musicicon</title>
    <desc>Created with Sketch.</desc>
    <defs>
        <linearGradient x1="81.6848272%" y1="25.9347498%" x2="29.4875615%" y2="77.3995935%" id="linearGradient-1">
            <stop stop-color="#FF9F00" offset="0%"></stop>
            <stop stop-color="#FF6600" offset="100%"></stop>
        </linearGradient>
    </defs>
    <g id="Symbols" stroke="none" stroke-width="1" fill="none" fill-rule="evenodd">
        <g id="musicicon">
            <g id="Group" transform="translate(0.000000, -0.500000)">
                <path d="M39.9998973,20.506822 C39.9998973,31.5525768 31.0455146,40.5069595 19.9997598,40.5069595 C8.95427995,40.5069595 -0.000102739726,31.5525768 -0.000102739726,20.506822 C-0.000102739726,9.46134214 8.95427995,0.506959459 19.9997598,0.506959459 C31.0455146,0.506959459 39.9998973,9.46134214 39.9998973,20.506822" id="Fill-1" fill="url(#linearGradient-1)"></path>
                <path d="M26.5835213,13.988685 C25.6023569,14.2025363 24.6468775,14.4118269 23.6908843,14.6190904 C21.6401994,15.0640228 19.592083,15.5195971 17.5367748,15.9417255 C17.1191378,16.0273674 16.9819802,16.1738201 16.984035,16.6086174 C17.0040693,20.4118269 16.9979049,24.2150363 16.9937953,28.017739 C16.9922542,29.1630093 16.249446,30.1684147 15.1624597,30.5287188 C14.1509871,30.863685 13.0234186,30.5135161 12.3437953,29.6525363 C11.6677679,28.7971309 11.6009871,27.6047323 12.1783843,26.6900363 C12.7532131,25.7788877 13.8535556,25.3121647 14.8973912,25.5371647 C15.0432816,25.5685836 15.1876309,25.6035499 15.3931104,25.651185 L15.3931104,25.0435836 C15.3931104,21.3229755 15.3931104,17.6023674 15.392083,13.8817593 C15.392083,13.105408 15.5533843,12.9021985 16.3218775,12.7334485 C19.8515008,11.9591242 23.3811241,11.1842931 26.9107474,10.4119958 C27.869309,10.2021985 28.2129734,10.4763539 28.2129734,11.4442593 C28.2129734,16.3010161 28.211946,21.1572661 28.211946,26.0140228 C28.211946,27.5494958 26.9400282,28.6978066 25.3655419,28.5807458 C23.9076652,28.4722999 22.8098912,27.1146985 23.0220487,25.6831107 C23.2439665,24.1871647 24.6648569,23.215712 26.1674254,23.5334485 C26.2958501,23.5608134 26.4232474,23.5932458 26.5835213,23.630239 L26.5835213,13.988685 Z" id="Fill-14" fill="#FFFFFF"></path>
            </g>
        </g>
    </g>
</svg>